<?xml version="1.0" encoding="UTF-8"?>
<svg xmlns="http://www.w3.org/2000/svg" xmlns:xlink="http://www.w3.org/1999/xlink" width="150px" height="150px" viewBox="0 0 150 150" version="1.1">
<g id="surface1">
<path style="fill:none;stroke-width:2;stroke-linecap:butt;stroke-linejoin:miter;stroke:rgb(0%,0%,0%);stroke-opacity:1;stroke-miterlimit:4;" d="M 7 19 L 7.39375 17.42375 C 7.610625 16.5575 7.71875 16.12375 7.960625 15.80125 C 8.17375 15.516875 8.45875 15.29375 8.786875 15.15625 C 9.15875 15 9.605 15 10.49875 15 L 13.50125 15 C 14.395 15 14.84125 15 15.213125 15.15625 C 15.54125 15.29375 15.82625 15.516875 16.039375 15.80125 C 16.28125 16.12375 16.389375 16.5575 16.60625 17.42375 L 17 19 M 8 12 C 9.104375 12 10 11.104375 10 10 C 10 8.895625 9.104375 8 8 8 M 8 12 C 6.895625 12 6 11.104375 6 10 C 6 8.895625 6.895625 8 8 8 M 8 12 L 16 12 M 8 8 L 16 8 M 16 12 C 17.104375 12 18 11.104375 18 10 C 18 8.895625 17.104375 8 16 8 M 16 12 C 14.895625 12 14 11.104375 14 10 C 14 8.895625 14.895625 8 16 8 M 6.2 19 L 17.8 19 C 18.92 19 19.48 19 19.908125 18.781875 C 20.284375 18.59 20.59 18.284375 20.781875 17.908125 C 21 17.48 21 16.92 21 15.8 L 21 8.2 C 21 7.08 21 6.52 20.781875 6.091875 C 20.59 5.715625 20.284375 5.41 19.908125 5.218125 C 19.48 5 18.92 5 17.8 5 L 6.2 5 C 5.08 5 4.52 5 4.091875 5.218125 C 3.715625 5.41 3.41 5.715625 3.218125 6.091875 C 3 6.52 3 7.08 3 8.2 L 3 15.8 C 3 16.92 3 17.48 3.218125 17.908125 C 3.41 18.284375 3.715625 18.59 4.091875 18.781875 C 4.52 19 5.08 19 6.2 19 Z M 6.2 19 " transform="matrix(6.25,0,0,6.25,0,0)"/>
</g>
</svg>
