<?xml version="1.0" encoding="UTF-8"?>
<svg xmlns="http://www.w3.org/2000/svg" xmlns:xlink="http://www.w3.org/1999/xlink" width="150px" height="150px" viewBox="0 0 150 150" version="1.1">
<g id="surface1">
<path style=" stroke:none;fill-rule:nonzero;fill:rgb(0%,0%,0%);fill-opacity:1;" d="M 75 0.00390625 C 33.640625 0.00390625 0 33.640625 0 75 C 0 116.359375 33.640625 149.996094 75 149.996094 C 116.359375 149.996094 150 116.359375 150 75 C 150 33.640625 116.359375 0.00390625 75 0.00390625 Z M 75 140.609375 C 38.820312 140.609375 9.386719 111.175781 9.386719 75 C 9.386719 38.824219 38.820312 9.390625 75 9.390625 C 111.175781 9.390625 140.617188 38.824219 140.617188 75 C 140.617188 111.175781 111.179688 140.609375 75 140.609375 Z M 75 140.609375 "/>
<path style=" stroke:none;fill-rule:nonzero;fill:rgb(0%,0%,0%);fill-opacity:1;" d="M 75 47.515625 C 59.851562 47.515625 47.519531 59.84375 47.519531 75 C 47.519531 90.15625 59.84375 102.484375 75 102.484375 C 90.15625 102.484375 102.484375 90.15625 102.484375 75 C 102.484375 59.84375 90.15625 47.515625 75 47.515625 Z M 75 93.097656 C 65.023438 93.097656 56.90625 84.976562 56.90625 75 C 56.90625 65.023438 65.023438 56.902344 75 56.902344 C 84.972656 56.902344 93.097656 65.023438 93.097656 75 C 93.097656 84.976562 84.976562 93.097656 75 93.097656 Z M 75 93.097656 "/>
<path style=" stroke:none;fill-rule:nonzero;fill:rgb(0%,0%,0%);fill-opacity:1;" d="M 75 32.703125 C 51.675781 32.703125 32.703125 51.679688 32.703125 75 C 32.703125 77.59375 34.804688 79.695312 37.398438 79.695312 C 39.988281 79.695312 42.089844 77.59375 42.089844 75 C 42.089844 56.855469 56.855469 42.089844 75 42.089844 C 77.589844 42.089844 79.695312 39.992188 79.695312 37.398438 C 79.695312 34.800781 77.589844 32.703125 75 32.703125 Z M 75 32.703125 "/>
<path style=" stroke:none;fill-rule:nonzero;fill:rgb(0%,0%,0%);fill-opacity:1;" d="M 112.601562 70.304688 C 110.011719 70.304688 107.910156 72.40625 107.910156 75 C 107.910156 93.144531 93.148438 107.910156 75 107.910156 C 72.410156 107.910156 70.304688 110.007812 70.304688 112.601562 C 70.304688 115.199219 72.410156 117.296875 75 117.296875 C 98.320312 117.296875 117.296875 98.320312 117.296875 75 C 117.296875 72.40625 115.195312 70.304688 112.601562 70.304688 Z M 112.601562 70.304688 "/>
<path style=" stroke:none;fill-rule:nonzero;fill:rgb(0%,0%,0%);fill-opacity:1;" d="M 75 14.039062 C 41.382812 14.039062 14.03125 41.386719 14.03125 75 C 14.03125 77.59375 16.136719 79.695312 18.726562 79.695312 C 21.316406 79.695312 23.417969 77.59375 23.417969 75 C 23.417969 46.558594 46.558594 23.425781 75 23.425781 C 77.589844 23.425781 79.695312 21.328125 79.695312 18.730469 C 79.695312 16.136719 77.589844 14.039062 75 14.039062 Z M 75 14.039062 "/>
<path style=" stroke:none;fill-rule:nonzero;fill:rgb(0%,0%,0%);fill-opacity:1;" d="M 131.277344 70.304688 C 128.6875 70.304688 126.585938 72.40625 126.585938 75 C 126.585938 103.4375 103.445312 126.574219 75 126.574219 C 72.410156 126.574219 70.304688 128.671875 70.304688 131.269531 C 70.304688 133.863281 72.410156 135.960938 75 135.960938 C 108.617188 135.960938 135.96875 108.613281 135.972656 75 C 135.972656 72.40625 133.867188 70.304688 131.277344 70.304688 Z M 131.277344 70.304688 "/>
<path style=" stroke:none;fill-rule:nonzero;fill:rgb(0%,0%,0%);fill-opacity:1;" d="M 84.191406 75 C 84.191406 69.925781 80.074219 65.808594 75 65.808594 C 69.925781 65.808594 65.808594 69.925781 65.808594 75 C 65.808594 80.074219 69.925781 84.191406 75 84.191406 C 80.074219 84.191406 84.191406 80.074219 84.191406 75 Z M 84.191406 75 "/>
</g>
</svg>
